# xmcd
#
# Track frame offsets: 
#        150
#        13922
#        26038
#        36784
#        50936
#        65286
#        78417
#        90254
#        104274
#        117696
#        130638
#        142688
#        155338
#        166973
#        178660
#        192624
#        204236
#        216484
#        229149
#        244571
#        258714
#        279566
#        292237
#        305459
#        319476
#
# Disc length: 4416 seconds
#
# Revision: 0
# Processed by: cddbd v1.5.2PL0 Copyright (c) Steve Scherf et al.
# Submitted via: ExactAudioCopyFreeDBPlugin 1.0
#
DISCID=76113e19
DTITLE=Various Artist - The History of New Orleans Rhythm and Blues, Vo
DTITLE=lume 1:  Jazz, Blues and Creole Roots, 1921-1949
DYEAR=2011
DGENRE=Rhythm and Blues
TTITLE0=Sidney Bechet - When the Saints Go Marching In
TTITLE1=Jelly Roll Morton - Maple Leaf Rag
TTITLE2=New Orleans Rhythm Kings - Tiger Rag  (as "Friars Society Orch
TTITLE2=estra")
TTITLE3=Lonnie Johnson - A Handful of Riffs
TTITLE4=New Orleans Wanderers - Perdido Street Blues
TTITLE5=Chicago Hottentots - Put Me in the Alley Blues
TTITLE6=Lovie Austin - Travelin' Blues
TTITLE7=Luis Russell - Sweet Mumtaz
TTITLE8=Q.R.S. Boys - Wiggle Yo' Toes
TTITLE9=Harlem Hamfats - Root Hog or Die
TTITLE10=Zutty and His Band - Runenae Papa
TTITLE11=Bob Haggart and Ray Bauduc - Big Noise from Winnetka
TTITLE12=Noble Sissle - Dear Old Southland
TTITLE13=Haitian Orchestra with Sidney Bechet - Sous Les Palmiers
TTITLE14=Zutty and His Band - Look over Yonder
TTITLE15=Zutty Singleton and his Orchestra - King Porter Stomp
TTITLE16=Edmond Hall - Bésame Mucho
TTITLE17=Creole Serenaders - Mo Pas Lemme Ca
TTITLE18=Danny Barker - Chocko Mo Feendo Hey
TTITLE19=Danny Barker - Tootie Ma is a Big Fine Thing
TTITLE20=Paul Barbarin - Eh La Bas
TTITLE21=Kid Ory and His Creole Jazz Band - Blanche Touquatoux
TTITLE22=George Lewis Eureka Brass Band - Just a Closer Walk with Thee
TTITLE22=Lady Be Good
TTITLE23=Bob Crosby's Bobcats - South Rampart Street Parade
TTITLE24=Papa Lightfoot - The Saints
EXTD=
EXTT0=
EXTT1=
EXTT2=
EXTT3=
EXTT4=
EXTT5=
EXTT6=
EXTT7=
EXTT8=
EXTT9=
EXTT10=
EXTT11=
EXTT12=
EXTT13=
EXTT14=
EXTT15=
EXTT16=
EXTT17=
EXTT18=
EXTT19=
EXTT20=
EXTT21=
EXTT22=
EXTT23=
EXTT24=
PLAYORDER=
